<svg id="SvgjsSvg1006" width="288" height="288" xmlns="http://www.w3.org/2000/svg" version="1.1" xmlns:xlink="http://www.w3.org/1999/xlink" xmlns:svgjs="http://svgjs.com/svgjs"><defs id="SvgjsDefs1007"></defs><g id="SvgjsG1008"><svg xmlns="http://www.w3.org/2000/svg" stroke-linecap="round" stroke-linejoin="round" viewBox="0 0 24 24" width="288" height="288"><path d="M12 5a3 3 0 10-5.997.125 4 4 0 00-2.526 5.77 4 4 0 00.556 6.588A4 4 0 1012 18zM9 13a4.5 4.5 0 003-4M6.003 5.125A3 3 0 006.401 6.5M3.477 10.896a4 4 0 01.585-.396M6 18a4 4 0 01-1.967-.516M12 13h4M12 18h6a2 2 0 012 2v1M12 8h8M16 8V5a2 2 0 012-2" fill="none" stroke="#a65f00" stroke-width="2" class="svgStroke colorStroke000000-0 selectable"></path><circle cx="16" cy="13" r=".5" fill="none" stroke="#d88200" stroke-width="2" class="svgStroke colorStroke000000-1 selectable"></circle><circle cx="18" cy="3" r=".5" fill="none" stroke="#d88200" stroke-width="2" class="svgStroke colorStroke000000-2 selectable"></circle><circle cx="20" cy="21" r=".5" fill="none" stroke="#d88200" stroke-width="2" class="svgStroke colorStroke000000-3 selectable"></circle><circle cx="20" cy="8" r=".5" fill="none" stroke="#d88200" stroke-width="2" class="svgStroke colorStroke000000-4 selectable"></circle></svg></g></svg>